<svg width="20.000000" height="20.000000" viewBox="0 0 20 20" fill="none" xmlns="http://www.w3.org/2000/svg" xmlns:xlink="http://www.w3.org/1999/xlink">
	<desc>
			Created with Pixso.
	</desc>
	<defs>
		<clipPath id="clip5_76">
			<rect id="Frame 86" width="20.000000" height="20.000000" transform="translate(-0.030029 -0.059998)" fill="white" fill-opacity="0"/>
		</clipPath>
	</defs>
	<g clip-path="url(#clip5_76)">
		<path id="Vector" d="M10.91 6.38C10.96 6.35 12.31 5.67 13.01 5.45C13.13 5.41 13.26 5.48 13.29 5.6C13.33 5.72 13.27 5.85 13.15 5.88C12.48 6.09 11.12 6.78 11.11 6.78C11.08 6.8 11.05 6.81 11.01 6.81C10.93 6.81 10.85 6.76 10.81 6.68C10.75 6.57 10.79 6.43 10.91 6.37L10.91 6.38Z" fill="#FFFFFF" fill-opacity="1.000000" fill-rule="nonzero"/>
		<path id="Vector" d="M10.91 7.75C10.96 7.72 12.31 7.04 13.01 6.82C13.13 6.78 13.26 6.85 13.29 6.97C13.33 7.09 13.27 7.22 13.15 7.25C12.48 7.46 11.12 8.15 11.11 8.15C11.08 8.17 11.05 8.17 11.01 8.17C10.93 8.17 10.85 8.13 10.81 8.05C10.75 7.94 10.79 7.8 10.91 7.74L10.91 7.75Z" fill="#FFFFFF" fill-opacity="1.000000" fill-rule="nonzero"/>
		<path id="Vector" d="M10.91 9.12C10.96 9.09 12.31 8.41 13.01 8.19C13.13 8.15 13.26 8.22 13.29 8.34C13.33 8.46 13.27 8.58 13.15 8.62C12.48 8.83 11.12 9.52 11.11 9.52C11.08 9.54 11.05 9.54 11.01 9.54C10.93 9.54 10.85 9.5 10.81 9.42C10.75 9.31 10.79 9.17 10.91 9.11L10.91 9.12Z" fill="#FFFFFF" fill-opacity="1.000000" fill-rule="nonzero"/>
		<path id="Vector" d="M10.91 10.49C10.96 10.46 12.31 9.78 13.01 9.56C13.13 9.53 13.26 9.59 13.29 9.71C13.33 9.83 13.27 9.96 13.15 10C12.48 10.2 11.12 10.89 11.11 10.89C11.08 10.91 11.05 10.92 11.01 10.92C10.93 10.92 10.85 10.87 10.81 10.79C10.75 10.68 10.79 10.54 10.91 10.48L10.91 10.49Z" fill="#FFFFFF" fill-opacity="1.000000" fill-rule="nonzero"/>
		<path id="Vector" d="M10.91 11.86C10.96 11.83 12.31 11.15 13.01 10.93C13.13 10.89 13.26 10.96 13.29 11.08C13.33 11.2 13.27 11.33 13.15 11.36C12.48 11.57 11.12 12.26 11.11 12.26C11.08 12.28 11.05 12.29 11.01 12.29C10.93 12.29 10.85 12.24 10.81 12.16C10.75 12.05 10.79 11.91 10.91 11.85L10.91 11.86Z" fill="#FFFFFF" fill-opacity="1.000000" fill-rule="nonzero"/>
		<path id="Vector" d="M8.71 12.92C8.68 13.04 8.55 13.12 8.43 13.09C7.12 12.78 5.57 13.19 5.55 13.19C5.53 13.2 5.51 13.2 5.49 13.2C5.39 13.2 5.3 13.13 5.27 13.03C5.24 12.91 5.31 12.78 5.43 12.75C5.5 12.73 7.11 12.31 8.53 12.64C8.66 12.67 8.73 12.79 8.7 12.92L8.71 12.92Z" fill="#FFFFFF" fill-opacity="1.000000" fill-rule="nonzero"/>
		<path id="Vector" d="M8.71 11.55C8.68 11.67 8.55 11.75 8.43 11.72C7.12 11.42 5.57 11.82 5.55 11.83C5.53 11.83 5.51 11.83 5.49 11.83C5.39 11.83 5.3 11.77 5.27 11.66C5.24 11.54 5.31 11.42 5.43 11.38C5.5 11.36 7.11 10.95 8.53 11.27C8.66 11.3 8.73 11.42 8.7 11.54L8.71 11.55Z" fill="#FFFFFF" fill-opacity="1.000000" fill-rule="nonzero"/>
		<path id="Vector" d="M8.71 10.18C8.68 10.3 8.55 10.38 8.43 10.35C7.12 10.05 5.57 10.45 5.55 10.46C5.53 10.46 5.51 10.47 5.49 10.47C5.39 10.47 5.3 10.4 5.27 10.3C5.24 10.18 5.31 10.05 5.43 10.01C5.5 10 7.11 9.58 8.53 9.9C8.66 9.93 8.73 10.06 8.7 10.18L8.71 10.18Z" fill="#FFFFFF" fill-opacity="1.000000" fill-rule="nonzero"/>
		<path id="Vector" d="M8.71 8.81C8.68 8.93 8.55 9 8.43 8.98C7.12 8.67 5.57 9.08 5.55 9.08C5.53 9.09 5.51 9.09 5.49 9.09C5.39 9.09 5.3 9.02 5.27 8.92C5.24 8.8 5.31 8.67 5.43 8.64C5.5 8.62 7.11 8.2 8.53 8.53C8.66 8.56 8.73 8.68 8.7 8.81L8.71 8.81Z" fill="#FFFFFF" fill-opacity="1.000000" fill-rule="nonzero"/>
		<path id="Vector" d="M8.71 7.44C8.68 7.56 8.55 7.64 8.43 7.61C7.12 7.3 5.57 7.71 5.55 7.71C5.53 7.72 5.51 7.72 5.49 7.72C5.39 7.72 5.3 7.65 5.27 7.55C5.24 7.43 5.31 7.3 5.43 7.27C5.5 7.25 7.11 6.83 8.53 7.16C8.66 7.19 8.73 7.31 8.7 7.44L8.71 7.44Z" fill="#FFFFFF" fill-opacity="1.000000" fill-rule="nonzero"/>
		<path id="Vector" d="M11.01 9.55C11.05 9.55 11.08 9.54 11.11 9.53C11.13 9.52 12.48 8.83 13.15 8.63C13.27 8.59 13.34 8.46 13.29 8.34C13.26 8.22 13.13 8.15 13.01 8.19C12.3 8.41 10.96 9.09 10.91 9.12C10.79 9.17 10.75 9.31 10.8 9.43C10.85 9.51 10.92 9.55 11.01 9.55L11.01 9.55Z" fill="#FFFFFF" fill-opacity="1.000000" fill-rule="nonzero"/>
		<path id="Vector" d="M11.01 6.81C11.05 6.81 11.08 6.8 11.11 6.78C11.13 6.78 12.48 6.09 13.15 5.88C13.27 5.85 13.34 5.72 13.29 5.6C13.26 5.48 13.13 5.41 13.01 5.45C12.3 5.67 10.96 6.35 10.91 6.38C10.79 6.43 10.75 6.57 10.8 6.69C10.85 6.76 10.92 6.81 11.01 6.81L11.01 6.81Z" fill="#FFFFFF" fill-opacity="1.000000" fill-rule="nonzero"/>
		<path id="Vector" d="M4.12 16.63L15.61 16.63C16.24 16.63 16.76 16.12 16.76 15.49L16.76 6.58C16.76 6.45 16.66 6.34 16.53 6.34C16.4 6.34 16.3 6.45 16.3 6.58L16.3 15.49C16.3 15.86 15.98 16.17 15.6 16.17L10.09 16.17L10.09 15.65C10.42 15.53 11.3 15.26 12.16 15.26C14.16 15.26 15.52 15.7 15.53 15.71C15.6 15.73 15.68 15.72 15.74 15.67C15.8 15.63 15.84 15.56 15.84 15.49L15.84 5.44C15.84 5.34 15.77 5.24 15.66 5.22C15.66 5.22 15.48 5.18 15.17 5.12C15.05 5.1 14.93 5.18 14.9 5.31C14.88 5.43 14.96 5.55 15.09 5.57C15.21 5.6 15.31 5.62 15.38 5.63L15.38 15.19C14.86 15.06 13.7 14.81 12.16 14.81C11.16 14.81 10.18 15.14 9.87 15.25C9.6 15.13 8.78 14.81 7.79 14.81C6.21 14.81 4.91 15.07 4.35 15.2L4.35 5.62C4.81 5.51 6.16 5.22 7.79 5.22C8.63 5.22 9.35 5.47 9.63 5.59L9.63 14.58C9.63 14.66 9.68 14.74 9.75 14.78C9.82 14.82 9.91 14.82 9.98 14.78C10 14.77 12.28 13.42 14.3 12.75C14.39 12.72 14.46 12.63 14.46 12.53L14.46 3.16C14.46 3.09 14.42 3.02 14.36 2.98C14.3 2.93 14.22 2.92 14.15 2.95C12.31 3.63 10.45 4.78 10.43 4.8C10.32 4.86 10.29 5 10.35 5.11C10.42 5.22 10.56 5.25 10.67 5.18C10.69 5.17 12.31 4.17 13.99 3.5L13.99 12.36C12.43 12.91 10.79 13.79 10.09 14.19L10.09 5.45C10.09 5.36 10.04 5.28 9.96 5.24C9.92 5.22 8.98 4.76 7.79 4.76C5.72 4.76 4.12 5.21 4.06 5.23C3.96 5.26 3.89 5.35 3.89 5.45L3.89 15.5C3.89 15.57 3.92 15.64 3.98 15.68C4.02 15.72 4.07 15.73 4.12 15.73C4.14 15.73 4.16 15.73 4.18 15.72C4.2 15.72 5.79 15.27 7.8 15.27C8.64 15.27 9.36 15.53 9.63 15.65L9.63 16.19L4.12 16.19C3.74 16.19 3.43 15.88 3.43 15.5L3.43 6.59C3.43 6.46 3.33 6.36 3.2 6.36C3.07 6.36 2.96 6.46 2.96 6.59L2.96 15.5C2.96 16.13 3.48 16.64 4.12 16.64L4.12 16.63Z" fill="#FFFFFF" fill-opacity="1.000000" fill-rule="nonzero"/>
		<path id="Vector" d="M11.01 8.18C11.05 8.18 11.08 8.17 11.11 8.16C11.13 8.15 12.48 7.46 13.15 7.26C13.27 7.22 13.34 7.09 13.29 6.97C13.26 6.85 13.13 6.78 13.01 6.82C12.3 7.05 10.96 7.72 10.91 7.75C10.79 7.81 10.75 7.94 10.8 8.06C10.85 8.14 10.92 8.18 11.01 8.18L11.01 8.18Z" fill="#FFFFFF" fill-opacity="1.000000" fill-rule="nonzero"/>
		<path id="Vector" d="M11.01 10.92C11.05 10.92 11.08 10.91 11.11 10.89C11.13 10.89 12.48 10.2 13.15 10C13.27 9.96 13.34 9.83 13.29 9.71C13.26 9.59 13.13 9.52 13.01 9.56C12.3 9.78 10.96 10.46 10.91 10.49C10.79 10.54 10.75 10.68 10.8 10.8C10.85 10.88 10.92 10.92 11.01 10.92L11.01 10.92Z" fill="#FFFFFF" fill-opacity="1.000000" fill-rule="nonzero"/>
		<path id="Vector" d="M8.54 7.17C7.12 6.83 5.5 7.26 5.44 7.28C5.32 7.31 5.24 7.43 5.27 7.56C5.3 7.66 5.4 7.73 5.5 7.73C5.52 7.73 5.54 7.73 5.56 7.72C5.57 7.72 7.13 7.31 8.43 7.61C8.56 7.64 8.68 7.57 8.71 7.44C8.74 7.32 8.67 7.2 8.54 7.17L8.54 7.17Z" fill="#FFFFFF" fill-opacity="1.000000" fill-rule="nonzero"/>
		<path id="Vector" d="M8.54 8.53C7.12 8.2 5.5 8.63 5.44 8.64C5.32 8.68 5.24 8.8 5.27 8.93C5.3 9.03 5.4 9.1 5.5 9.1C5.52 9.1 5.54 9.1 5.56 9.09C5.57 9.09 7.13 8.68 8.43 8.98C8.56 9.01 8.68 8.94 8.71 8.81C8.74 8.69 8.67 8.57 8.54 8.53L8.54 8.53Z" fill="#FFFFFF" fill-opacity="1.000000" fill-rule="nonzero"/>
		<path id="Vector" d="M11.01 12.29C11.05 12.29 11.08 12.28 11.11 12.27C11.13 12.26 12.48 11.58 13.15 11.37C13.27 11.33 13.34 11.2 13.29 11.08C13.26 10.96 13.13 10.89 13.01 10.94C12.3 11.16 10.96 11.83 10.91 11.86C10.79 11.92 10.75 12.06 10.8 12.17C10.85 12.25 10.92 12.3 11.01 12.3L11.01 12.29Z" fill="#FFFFFF" fill-opacity="1.000000" fill-rule="nonzero"/>
		<path id="Vector" d="M8.54 9.9C7.12 9.57 5.5 10 5.44 10.01C5.32 10.05 5.24 10.17 5.27 10.3C5.3 10.4 5.4 10.47 5.5 10.47C5.52 10.47 5.54 10.47 5.56 10.46C5.57 10.46 7.13 10.05 8.43 10.35C8.56 10.38 8.68 10.3 8.71 10.18C8.74 10.06 8.67 9.94 8.54 9.9L8.54 9.9Z" fill="#FFFFFF" fill-opacity="1.000000" fill-rule="nonzero"/>
		<path id="Vector" d="M8.54 12.65C7.12 12.31 5.5 12.74 5.44 12.76C5.32 12.79 5.24 12.91 5.27 13.04C5.3 13.14 5.4 13.21 5.5 13.21C5.52 13.21 5.54 13.21 5.56 13.2C5.57 13.2 7.13 12.79 8.43 13.09C8.56 13.12 8.68 13.05 8.71 12.92C8.74 12.8 8.67 12.68 8.54 12.65L8.54 12.65Z" fill="#FFFFFF" fill-opacity="1.000000" fill-rule="nonzero"/>
		<path id="Vector" d="M8.54 11.28C7.12 10.95 5.5 11.37 5.44 11.39C5.32 11.42 5.24 11.54 5.27 11.67C5.3 11.77 5.4 11.84 5.5 11.84C5.52 11.84 5.54 11.84 5.56 11.83C5.57 11.83 7.13 11.42 8.43 11.72C8.56 11.75 8.68 11.68 8.71 11.55C8.74 11.43 8.67 11.31 8.54 11.28L8.54 11.28Z" fill="#FFFFFF" fill-opacity="1.000000" fill-rule="nonzero"/>
	</g>
</svg>
