<svg width="7.000000" height="8.000000" viewBox="0 0 7 8" fill="none" xmlns="http://www.w3.org/2000/svg" xmlns:xlink="http://www.w3.org/1999/xlink">
	<desc>
			Created with Pixso.
	</desc>
	<defs/>
	<path id="" d="M6.48 -0.19C6.31 -0.34 6.13 -0.42 5.91 -0.42L0.07 -0.42C-0.16 -0.42 -0.34 -0.34 -0.49 -0.19C-0.66 -0.02 -0.72 0.16 -0.72 0.37L-0.72 6.22C-0.72 6.45 -0.66 6.63 -0.49 6.78C-0.34 6.95 -0.16 7.01 0.07 7.01L5.91 7.01C6.13 7.01 6.31 6.95 6.48 6.78C6.63 6.63 6.71 6.45 6.71 6.22L6.71 0.37C6.71 0.16 6.63 -0.02 6.48 -0.19ZM3.26 5.29C2.51 5.73 1.7 5.95 0.83 5.95C0.77 5.95 0.72 5.93 0.69 5.9C0.64 5.87 0.6 5.82 0.59 5.75L0.34 4.67C0.32 4.62 0.32 4.57 0.35 4.51C0.39 4.46 0.42 4.42 0.49 4.39L1.65 3.89C1.7 3.88 1.75 3.88 1.8 3.89C1.85 3.91 1.9 3.94 1.95 3.98L2.46 4.59C2.86 4.41 3.21 4.16 3.52 3.84C3.84 3.53 4.09 3.16 4.29 2.76L3.67 2.25C3.62 2.22 3.59 2.17 3.57 2.12C3.56 2.07 3.56 2.02 3.59 1.95L4.09 0.79C4.1 0.74 4.14 0.71 4.2 0.67C4.25 0.64 4.3 0.64 4.37 0.64L5.45 0.89C5.5 0.92 5.55 0.96 5.58 0.99C5.61 1.04 5.65 1.09 5.65 1.14C5.65 2.02 5.41 2.83 4.98 3.56C4.55 4.29 3.99 4.87 3.26 5.29Z" fill="#FFFFFF" fill-opacity="1.000000" fill-rule="evenodd"/>
</svg>
