<svg width="20.000000" height="20.000000" viewBox="0 0 20 20" fill="none" xmlns="http://www.w3.org/2000/svg" xmlns:xlink="http://www.w3.org/1999/xlink">
	<desc>
			Created with Pixso.
	</desc>
	<defs>
		<clipPath id="clip5_75">
			<rect id="Frame 85" width="20.000000" height="20.000000" transform="translate(-0.030029 -0.059998)" fill="white" fill-opacity="0"/>
		</clipPath>
	</defs>
	<g clip-path="url(#clip5_75)">
		<path id="Vector" d="M17.72 13.97L17.49 13.97L17 12.09C16.96 11.97 16.86 11.89 16.73 11.89L16.51 11.89L16.36 11.07C16.35 10.99 16.3 10.92 16.24 10.88C15.59 9.02 15.61 7.75 15.65 7.27L16 7.27C16.35 7.27 16.62 6.98 16.62 6.63L16.62 6.28C16.62 5.92 16.34 5.64 16 5.64L15.98 5.64C16.09 5.38 16.15 5.09 16.15 4.8C16.15 3.77 15.4 2.92 14.44 2.79L14.44 2.21C14.44 2.06 14.32 1.94 14.17 1.94C14.02 1.94 13.9 2.06 13.9 2.21L13.9 2.79C12.93 2.92 12.18 3.77 12.18 4.8C12.18 5.09 12.24 5.38 12.36 5.64L12.34 5.64C11.99 5.64 11.71 5.93 11.71 6.28L11.71 6.63C11.71 6.98 12 7.27 12.34 7.27L12.69 7.27C12.73 7.75 12.74 9 12.09 10.88C12.03 10.92 11.98 10.99 11.97 11.07L11.82 11.89L11.6 11.89C11.48 11.89 11.37 11.98 11.34 12.09L11.28 12.33C10.91 10.96 10.93 10.02 10.96 9.62L11.31 9.62C11.65 9.62 11.93 9.33 11.93 8.98L11.93 8.63C11.93 8.27 11.65 7.99 11.31 7.99L11.28 7.99C11.4 7.73 11.46 7.44 11.46 7.15C11.46 6.12 10.71 5.27 9.75 5.14L9.75 4.57C9.75 4.42 9.63 4.29 9.48 4.29C9.32 4.29 9.2 4.41 9.2 4.57L9.2 5.14C8.24 5.28 7.49 6.12 7.49 7.15C7.49 7.44 7.55 7.73 7.67 7.99L7.65 7.99C7.3 7.99 7.02 8.28 7.02 8.63L7.02 8.98C7.02 9.33 7.3 9.62 7.65 9.62L8 9.62C8.03 10.02 8.05 10.96 7.68 12.33L7.62 12.09C7.59 11.97 7.48 11.89 7.35 11.89L7.13 11.89L6.99 11.07C6.97 10.99 6.93 10.92 6.87 10.88C6.21 9.02 6.23 7.75 6.27 7.27L6.62 7.27C6.97 7.27 7.24 6.98 7.24 6.63L7.24 6.28C7.24 5.92 6.96 5.64 6.62 5.64L6.6 5.64C6.71 5.38 6.77 5.09 6.77 4.8C6.77 3.77 6.03 2.92 5.06 2.79L5.06 2.21C5.06 2.06 4.94 1.94 4.79 1.94C4.64 1.94 4.52 2.06 4.52 2.21L4.52 2.79C3.55 2.92 2.81 3.77 2.81 4.8C2.81 5.09 2.87 5.38 2.98 5.64L2.96 5.64C2.61 5.64 2.34 5.93 2.34 6.28L2.34 6.63C2.34 6.98 2.62 7.27 2.96 7.27L3.31 7.27C3.35 7.75 3.36 9 2.71 10.88C2.65 10.92 2.6 10.99 2.59 11.07L2.45 11.89L2.22 11.89C2.1 11.89 1.99 11.98 1.96 12.09L1.46 13.97L1.24 13.97C1.09 13.97 0.96 14.09 0.96 14.25L0.96 15.3C0.96 15.45 1.08 15.58 1.24 15.58L6.34 15.58L6.15 16.33L5.92 16.33C5.77 16.33 5.65 16.45 5.65 16.6L5.65 17.66C5.65 17.81 5.77 17.94 5.92 17.94L13.01 17.94C13.16 17.94 13.28 17.81 13.28 17.66L13.28 16.6C13.28 16.45 13.16 16.33 13.01 16.33L12.78 16.33L12.59 15.58L17.69 15.58C17.84 15.58 17.96 15.45 17.96 15.3L17.96 14.25C17.96 14.1 17.85 13.97 17.69 13.97L17.72 13.97ZM12.26 6.63L12.26 6.28C12.26 6.23 12.3 6.19 12.34 6.19L14.65 6.19C14.8 6.19 14.92 6.07 14.92 5.91C14.92 5.76 14.8 5.63 14.65 5.63L12.99 5.63C12.82 5.39 12.73 5.09 12.73 4.79C12.73 3.98 13.38 3.32 14.17 3.32C14.97 3.32 15.61 3.98 15.61 4.79C15.61 5.14 15.5 5.47 15.28 5.73C15.22 5.82 15.21 5.93 15.25 6.02C15.29 6.12 15.39 6.19 15.49 6.19L16 6.19C16.05 6.19 16.08 6.22 16.08 6.27L16.08 6.62C16.08 6.67 16.05 6.71 16 6.71L12.34 6.71C12.3 6.71 12.26 6.67 12.26 6.62L12.26 6.63ZM13.24 7.27L15.1 7.27C15.06 7.82 15.07 9.05 15.66 10.83L12.68 10.83C13.27 9.05 13.28 7.82 13.24 7.27ZM12.47 11.39L15.88 11.39L15.96 11.89L12.39 11.89L12.48 11.39L12.47 11.39ZM11.82 12.44L16.53 12.44L16.93 13.96L11.78 13.96L11.68 13.41C11.67 13.35 11.64 13.3 11.59 13.26C11.59 13.25 11.59 13.25 11.6 13.24L11.81 12.44L11.82 12.44ZM7.79 13.74L11.19 13.74L11.28 14.24L7.71 14.24L7.79 13.74L7.79 13.74ZM7.58 8.97L7.58 8.62C7.58 8.58 7.61 8.54 7.66 8.54L9.97 8.54C10.12 8.54 10.24 8.42 10.24 8.26C10.24 8.1 10.12 7.98 9.97 7.98L8.3 7.98C8.14 7.73 8.05 7.44 8.05 7.14C8.05 6.33 8.7 5.67 9.49 5.67C10.28 5.67 10.93 6.33 10.93 7.14C10.93 7.48 10.81 7.82 10.6 8.08C10.54 8.16 10.52 8.28 10.57 8.37C10.61 8.47 10.7 8.53 10.81 8.53L11.32 8.53C11.36 8.53 11.4 8.57 11.4 8.62L11.4 8.97C11.4 9.02 11.36 9.05 11.32 9.05L7.66 9.05C7.61 9.05 7.58 9.02 7.58 8.97L7.58 8.97ZM8.55 9.61L10.42 9.61C10.38 10.17 10.39 11.4 10.98 13.18L8 13.18C8.59 11.4 8.6 10.17 8.55 9.61ZM2.9 6.62L2.9 6.27C2.9 6.22 2.93 6.19 2.98 6.19L5.29 6.19C5.44 6.19 5.56 6.06 5.56 5.91C5.56 5.75 5.44 5.63 5.29 5.63L3.63 5.63C3.46 5.38 3.37 5.09 3.37 4.79C3.37 3.98 4.02 3.31 4.81 3.31C5.61 3.31 6.25 3.98 6.25 4.79C6.25 5.13 6.14 5.47 5.92 5.73C5.86 5.81 5.85 5.93 5.89 6.02C5.93 6.12 6.03 6.18 6.13 6.18L6.64 6.18C6.69 6.18 6.72 6.22 6.72 6.27L6.72 6.62C6.72 6.66 6.69 6.7 6.64 6.7L2.98 6.7C2.93 6.7 2.9 6.66 2.9 6.62L2.9 6.62ZM3.88 7.26L5.74 7.26C5.7 7.82 5.71 9.05 6.3 10.83L3.32 10.83C3.91 9.05 3.92 7.82 3.88 7.26ZM3.11 11.38L6.51 11.38L6.6 11.88L3.03 11.88L3.11 11.38L3.11 11.38ZM2.46 12.43L7.17 12.43L7.38 13.24C7.38 13.24 7.38 13.25 7.38 13.25C7.34 13.29 7.3 13.35 7.29 13.41L7.19 13.96L2.04 13.96L2.45 12.43L2.46 12.43ZM1.54 15.01L1.54 14.51L6.65 14.51L6.52 15.01L1.54 15.01ZM12.77 17.36L6.21 17.36L6.21 16.87L12.6 16.87L12.76 16.87L12.76 17.36L12.77 17.36ZM6.73 16.31L7.13 14.79L11.84 14.79L12.24 16.31L6.73 16.31ZM17.44 15.01L12.46 15.01L12.33 14.51L17.44 14.51L17.44 15.01Z" fill="#FFFFFF" fill-opacity="1.000000" fill-rule="nonzero"/>
	</g>
</svg>
