<svg width="20.000000" height="20.000000" viewBox="0 0 20 20" fill="none" xmlns="http://www.w3.org/2000/svg" xmlns:xlink="http://www.w3.org/1999/xlink">
	<desc>
			Created with Pixso.
	</desc>
	<defs>
		<clipPath id="clip5_77">
			<rect id="Frame 87" width="20.000000" height="20.000000" transform="translate(-0.030029 -0.059998)" fill="white" fill-opacity="0"/>
		</clipPath>
	</defs>
	<g clip-path="url(#clip5_77)">
		<path id="Vector" d="M12.97 5.53C13.72 5.53 14.31 4.95 14.31 4.24C14.31 3.52 13.72 2.94 12.97 2.94C12.21 2.94 11.61 3.51 11.61 4.24C11.61 4.96 12.21 5.53 12.97 5.53ZM15.22 10.73C13.12 10.73 11.47 12.31 11.47 14.33C11.47 16.35 13.12 17.94 15.22 17.94C17.31 17.94 18.96 16.35 18.96 14.33C18.96 12.32 17.32 10.73 15.22 10.73ZM15.22 16.86C13.79 16.86 12.59 15.7 12.59 14.33C12.59 12.97 13.79 11.81 15.22 11.81C16.64 11.81 17.84 12.96 17.84 14.33C17.84 15.71 16.64 16.86 15.22 16.86ZM12.07 9.28L15.22 9.28L15.22 7.99L12.82 7.99L11.39 5.61C11.17 5.24 10.79 5.03 10.27 5.03C9.89 5.03 9.59 5.17 9.37 5.39L6.59 8.06C6.37 8.28 6.22 8.56 6.22 8.92C6.22 9.35 6.44 9.79 6.82 10L9.37 11.44L9.37 15.05L10.72 15.05L10.72 10.36L9.07 9.14L10.79 7.48L12.07 9.28L12.07 9.28ZM4.71 10.73C2.62 10.73 0.96 12.31 0.96 14.33C0.96 16.35 2.62 17.94 4.71 17.94C6.81 17.94 8.46 16.35 8.46 14.33C8.46 12.32 6.81 10.73 4.71 10.73ZM4.71 16.86C3.29 16.86 2.09 15.7 2.09 14.33C2.09 12.97 3.29 11.81 4.71 11.81C6.14 11.81 7.34 12.96 7.34 14.33C7.34 15.71 6.14 16.86 4.71 16.86Z" fill="#FFFFFF" fill-opacity="1.000000" fill-rule="nonzero"/>
	</g>
</svg>
