<svg width="8.000000" height="8.000000" viewBox="0 0 8 8" fill="none" xmlns="http://www.w3.org/2000/svg" xmlns:xlink="http://www.w3.org/1999/xlink">
	<desc>
			Created with Pixso.
	</desc>
	<defs/>
	<path id="" d="M5.6 -0.36C4.97 -0.65 4.29 -0.82 3.52 -0.82C2.78 -0.82 2.1 -0.62 1.47 -0.26C0.83 0.11 0.32 0.61 -0.04 1.24C-0.41 1.87 -0.59 2.56 -0.59 3.29C-0.59 4.04 -0.41 4.72 -0.04 5.35C0.32 5.98 0.83 6.5 1.47 6.86C2.1 7.23 2.78 7.41 3.52 7.41C4.34 7.41 5.08 7.19 5.76 6.75C5.86 6.68 5.91 6.6 5.95 6.48C5.96 6.36 5.93 6.25 5.86 6.15L5.7 5.95C5.63 5.88 5.55 5.83 5.45 5.82C5.35 5.8 5.25 5.82 5.17 5.87C4.67 6.2 4.12 6.35 3.52 6.35C2.96 6.35 2.46 6.22 2 5.93C1.53 5.67 1.15 5.29 0.88 4.82C0.6 4.36 0.47 3.86 0.47 3.29C0.47 2.75 0.6 2.23 0.88 1.77C1.15 1.3 1.53 0.94 2 0.66C2.46 0.39 2.96 0.24 3.52 0.24C4.09 0.24 4.6 0.36 5.07 0.56Q5.65 0.83 6.03 1.28Q6.1 1.36 6.16 1.45C6.43 1.87 6.58 2.35 6.58 2.9C6.58 3.25 6.49 3.54 6.33 3.81C6.13 4.11 5.9 4.26 5.61 4.29C5.48 4.29 5.4 4.24 5.36 4.14C5.33 4.07 5.35 3.96 5.38 3.79L5.78 1.78C5.8 1.65 5.76 1.55 5.7 1.45C5.61 1.35 5.51 1.3 5.38 1.3L4.63 1.3C4.57 1.3 4.52 1.34 4.49 1.37C4.44 1.4 4.42 1.45 4.42 1.5C4.22 1.27 3.89 1.14 3.42 1.14C3.01 1.14 2.63 1.25 2.28 1.47Q2.03 1.62 1.84 1.81Q1.6 2.05 1.43 2.37Q1.42 2.38 1.41 2.4Q1.13 2.96 1.13 3.66C1.13 4.21 1.27 4.64 1.56 4.95C1.85 5.27 2.23 5.42 2.73 5.42C2.94 5.42 3.17 5.37 3.41 5.24C3.64 5.12 3.82 4.97 3.97 4.77C4.04 5.04 4.19 5.2 4.44 5.27C4.57 5.32 4.8 5.34 5.15 5.34C5.98 5.34 6.63 5.09 7.07 4.59C7.44 4.16 7.64 3.59 7.64 2.9C7.64 2.17 7.44 1.5 7.07 0.92C6.71 0.39 6.23 -0.04 5.6 -0.36ZM3.59 4.07C3.44 4.17 3.29 4.22 3.16 4.22C2.98 4.22 2.83 4.17 2.73 4.06C2.61 3.94 2.56 3.78 2.56 3.56C2.56 3.21 2.66 2.91 2.88 2.66C3.06 2.47 3.27 2.35 3.54 2.35C3.72 2.35 3.87 2.42 3.97 2.53C4.07 2.66 4.12 2.83 4.12 3.05C4.12 3.28 4.07 3.48 3.97 3.68C3.87 3.84 3.74 3.98 3.59 4.07Z" fill="#FFFFFF" fill-opacity="1.000000" fill-rule="evenodd"/>
</svg>
