<svg width="24.000000" height="24.000000" viewBox="0 0 24 24" fill="none" xmlns="http://www.w3.org/2000/svg" xmlns:xlink="http://www.w3.org/1999/xlink">
	<desc>
			Created with Pixso.
	</desc>
	<defs>
		<clipPath id="clip5_180">
			<rect id="Frame 106" width="12.000000" height="12.000000" transform="translate(6.000000 5.330017)" fill="white" fill-opacity="0"/>
		</clipPath>
	</defs>
	<rect id="Icon" rx="12.000000" width="24.000000" height="24.000000" transform="translate(0.000000 -0.669983)" fill="#606060" fill-opacity="1.000000"/>
	<g clip-path="url(#clip5_180)">
		<path id="" d="M16.79 10.83L16.79 9.29C16.79 9.04 16.7 8.83 16.53 8.64C16.34 8.47 16.13 8.38 15.88 8.38L14.35 8.38L14.35 7.46C14.35 7.21 14.25 7 14.08 6.81C13.89 6.63 13.68 6.54 13.43 6.54L10.36 6.54C10.1 6.54 9.89 6.63 9.71 6.81C9.52 7 9.45 7.21 9.45 7.46L9.45 8.38L7.91 8.38C7.65 8.38 7.44 8.47 7.26 8.64C7.07 8.83 7 9.04 7 9.29L7 10.83L16.79 10.83ZM10.67 7.76L13.12 7.76L13.12 8.38L10.67 8.38L10.67 7.76ZM16.79 11.44L13.12 11.44L13.12 11.82C13.12 11.9 13.08 11.95 13.04 11.99C13.01 12.03 12.95 12.05 12.89 12.05L10.9 12.05C10.82 12.05 10.77 12.03 10.73 11.99C10.69 11.95 10.67 11.9 10.67 11.82L10.67 11.44L7 11.44L7 14.19C7 14.46 7.07 14.67 7.26 14.84C7.44 15.04 7.65 15.11 7.91 15.11L15.88 15.11C16.13 15.11 16.34 15.04 16.53 14.84C16.7 14.67 16.79 14.46 16.79 14.19L16.79 11.44Z" fill="#FFFFFF" fill-opacity="1.000000" fill-rule="evenodd"/>
	</g>
</svg>
