<svg width="20.000000" height="20.000000" viewBox="0 0 20 20" fill="none" xmlns="http://www.w3.org/2000/svg" xmlns:xlink="http://www.w3.org/1999/xlink">
	<desc>
			Created with Pixso.
	</desc>
	<defs>
		<clipPath id="clip5_74">
			<rect id="Frame 84" width="20.000000" height="20.000000" transform="translate(-0.030029 -0.059998)" fill="white" fill-opacity="0"/>
		</clipPath>
	</defs>
	<g clip-path="url(#clip5_74)">
		<path id="Vector" d="M19.57 11.39L18.38 7.16C18.15 6.34 17.58 5.65 16.82 5.26C16.06 4.88 15.16 4.83 14.36 5.13C13.77 5.35 13.28 5.73 12.92 6.24C12.92 6.24 12.92 6.24 12.92 6.24L7.74 6.24L7.73 6.24C7.38 5.73 6.88 5.35 6.3 5.13C5.49 4.83 4.6 4.88 3.84 5.26C3.08 5.64 2.51 6.34 2.28 7.16L1.08 11.39C0.69 12.79 1.31 14.15 2.54 14.61C2.86 14.72 3.18 14.78 3.51 14.78C4.58 14.78 5.63 14.2 6.08 13.26L6.65 12.07C7.01 12.54 7.57 12.83 8.18 12.83C9.01 12.83 9.74 12.29 9.99 11.52L10.66 11.52C10.91 12.29 11.64 12.83 12.47 12.83C13.08 12.83 13.64 12.54 13.99 12.07L14.57 13.26C14.85 13.86 15.36 14.33 15.98 14.58C16.61 14.83 17.29 14.84 17.93 14.6C18.56 14.37 19.07 13.91 19.37 13.31C19.68 12.72 19.74 12.03 19.56 11.39L19.57 11.39ZM18.7 12.97C18.48 13.39 18.11 13.72 17.66 13.89C17.21 14.05 16.72 14.05 16.27 13.87C15.83 13.69 15.47 13.36 15.26 12.92L14.46 11.26C14.37 11.08 14.18 10.97 13.98 10.98C13.77 10.99 13.6 11.13 13.53 11.31C13.37 11.76 12.94 12.06 12.47 12.06C11.93 12.06 11.46 11.68 11.36 11.15C11.31 10.92 11.1 10.75 10.87 10.75L9.78 10.75C9.54 10.75 9.34 10.92 9.29 11.15C9.19 11.68 8.72 12.06 8.18 12.06C7.71 12.06 7.28 11.76 7.12 11.31C7.05 11.13 6.88 11 6.67 10.98C6.47 10.97 6.28 11.08 6.19 11.27L5.39 12.93C4.97 13.79 3.77 14.25 2.82 13.89C1.95 13.56 1.54 12.62 1.83 11.6L3.02 7.36C3.19 6.74 3.61 6.24 4.19 5.95C4.52 5.78 4.87 5.7 5.22 5.7C5.49 5.7 5.76 5.75 6.03 5.85C6.47 6.01 6.84 6.3 7.1 6.68C7.25 6.88 7.48 7.01 7.74 7.01L12.92 7.01C13.17 7.01 13.41 6.88 13.55 6.68C13.82 6.3 14.19 6.01 14.63 5.85C15.23 5.63 15.89 5.66 16.47 5.95C17.05 6.24 17.46 6.75 17.64 7.37L18.83 11.61C18.96 12.07 18.91 12.55 18.7 12.97L18.7 12.97Z" fill="#FFFFFF" fill-opacity="1.000000" fill-rule="nonzero"/>
		<path id="Vector" d="M15.95 7.36C15.95 7.63 15.74 7.84 15.47 7.84C15.2 7.84 14.98 7.63 14.98 7.36C14.98 7.09 15.2 6.88 15.47 6.88C15.74 6.88 15.95 7.09 15.95 7.36Z" fill="#FFFFFF" fill-opacity="1.000000" fill-rule="evenodd"/>
		<path id="Vector" d="M15.95 9.64C15.95 9.91 15.74 10.13 15.47 10.13C15.2 10.13 14.98 9.91 14.98 9.64C14.98 9.37 15.2 9.16 15.47 9.16C15.74 9.16 15.95 9.37 15.95 9.64Z" fill="#FFFFFF" fill-opacity="1.000000" fill-rule="evenodd"/>
		<path id="Vector" d="M14.81 8.5C14.81 8.77 14.59 8.98 14.32 8.98C14.05 8.98 13.83 8.77 13.83 8.5C13.83 8.23 14.05 8.01 14.32 8.01C14.59 8.01 14.81 8.23 14.81 8.5Z" fill="#FFFFFF" fill-opacity="1.000000" fill-rule="evenodd"/>
		<path id="Vector" d="M17.1 8.5C17.1 8.77 16.89 8.98 16.62 8.98C16.35 8.98 16.13 8.77 16.13 8.5C16.13 8.23 16.35 8.01 16.62 8.01C16.89 8.01 17.1 8.23 17.1 8.5Z" fill="#FFFFFF" fill-opacity="1.000000" fill-rule="evenodd"/>
		<path id="Vector" d="M6.34 8.12L5.66 8.12L5.66 7.44C5.66 7.23 5.49 7.06 5.27 7.06C5.06 7.06 4.89 7.23 4.89 7.44L4.89 8.12L4.2 8.12C3.99 8.12 3.82 8.29 3.82 8.5C3.82 8.71 3.99 8.88 4.2 8.88L4.89 8.88L4.89 9.56C4.89 9.77 5.06 9.94 5.27 9.94C5.49 9.94 5.66 9.77 5.66 9.56L5.66 8.88L6.34 8.88C6.55 8.88 6.72 8.71 6.72 8.5C6.72 8.29 6.55 8.12 6.34 8.12Z" fill="#FFFFFF" fill-opacity="1.000000" fill-rule="nonzero"/>
		<path id="Vector" d="M9.44 8.12L9.02 8.12C8.81 8.12 8.63 8.29 8.63 8.5C8.63 8.71 8.81 8.88 9.02 8.88L9.44 8.88C9.65 8.88 9.83 8.71 9.83 8.5C9.83 8.29 9.65 8.12 9.44 8.12Z" fill="#FFFFFF" fill-opacity="1.000000" fill-rule="nonzero"/>
		<path id="Vector" d="M12.02 8.5C12.02 8.29 11.84 8.12 11.63 8.12L11.21 8.12C11 8.12 10.82 8.29 10.82 8.5C10.82 8.71 11 8.88 11.21 8.88L11.63 8.88C11.84 8.88 12.02 8.71 12.02 8.5Z" fill="#FFFFFF" fill-opacity="1.000000" fill-rule="nonzero"/>
		<path id="Vector" d="M8.18 10.17C7.75 10.17 7.41 10.51 7.41 10.94C7.41 11.36 7.75 11.71 8.18 11.71C8.61 11.71 8.95 11.36 8.95 10.94C8.95 10.51 8.61 10.17 8.18 10.17ZM8.18 11.14C8.07 11.14 7.98 11.05 7.98 10.94C7.98 10.83 8.07 10.74 8.18 10.74C8.29 10.74 8.38 10.83 8.38 10.94C8.38 11.04 8.29 11.14 8.18 11.14Z" fill="#FFFFFF" fill-opacity="1.000000" fill-rule="nonzero"/>
		<path id="Vector" d="M12.47 10.17C12.04 10.17 11.7 10.51 11.7 10.94C11.7 11.36 12.04 11.71 12.47 11.71C12.9 11.71 13.25 11.36 13.25 10.94C13.25 10.51 12.9 10.17 12.47 10.17ZM12.47 11.14C12.36 11.14 12.27 11.05 12.27 10.94C12.27 10.83 12.36 10.74 12.47 10.74C12.58 10.74 12.67 10.83 12.67 10.94C12.67 11.05 12.58 11.14 12.47 11.14Z" fill="#FFFFFF" fill-opacity="1.000000" fill-rule="nonzero"/>
	</g>
</svg>
