<svg width="7.000000" height="8.000000" viewBox="0 0 7 8" fill="none" xmlns="http://www.w3.org/2000/svg" xmlns:xlink="http://www.w3.org/1999/xlink">
	<desc>
			Created with Pixso.
	</desc>
	<defs/>
	<path id="" d="M6.54 -0.26C6.44 -0.36 6.31 -0.42 6.18 -0.42L-0.19 -0.42C-0.34 -0.42 -0.48 -0.36 -0.58 -0.26C-0.68 -0.16 -0.72 -0.02 -0.72 0.11L-0.72 6.48C-0.72 6.63 -0.68 6.76 -0.58 6.86C-0.48 6.96 -0.34 7.01 -0.19 7.01L6.18 7.01C6.31 7.01 6.44 6.96 6.54 6.86C6.64 6.76 6.71 6.63 6.71 6.48L6.71 0.11C6.71 -0.02 6.64 -0.16 6.54 -0.26ZM1.42 1.74C1.28 1.87 1.13 1.92 0.97 1.92C0.79 1.92 0.64 1.87 0.52 1.74C0.39 1.6 0.34 1.45 0.34 1.29C0.34 1.12 0.39 0.97 0.52 0.84C0.64 0.71 0.79 0.64 0.97 0.64Q1.04 0.64 1.11 0.66Q1.28 0.7 1.42 0.84C1.55 0.97 1.61 1.12 1.61 1.29C1.61 1.45 1.55 1.6 1.42 1.74ZM5.65 4.01L5.65 5.95L4.55 5.95L4.55 4.22C4.55 3.94 4.52 3.73 4.47 3.59C4.39 3.39 4.22 3.28 3.97 3.28C3.71 3.28 3.52 3.38 3.42 3.56C3.34 3.71 3.31 3.93 3.31 4.19L3.31 5.95L2.21 5.95L2.21 2.4L3.27 2.4L3.27 2.88L3.29 2.88C3.36 2.73 3.49 2.6 3.66 2.5C3.85 2.38 4.07 2.32 4.34 2.32C4.83 2.32 5.2 2.48 5.41 2.8C5.56 3.06 5.65 3.46 5.65 4.01ZM1.53 5.95L0.42 5.95L0.42 2.4L1.53 2.4L1.53 5.95Z" fill="#FFFFFF" fill-opacity="1.000000" fill-rule="evenodd"/>
</svg>
