<svg width="20.000000" height="20.000000" viewBox="0 0 20 20" fill="none" xmlns="http://www.w3.org/2000/svg" xmlns:xlink="http://www.w3.org/1999/xlink">
	<desc>
			Created with Pixso.
	</desc>
	<defs>
		<clipPath id="clip5_73">
			<rect id="Frame 83" width="20.000000" height="20.000000" transform="translate(-0.030029 -0.059998)" fill="white" fill-opacity="0"/>
		</clipPath>
	</defs>
	<g clip-path="url(#clip5_73)">
		<path id="Vector" d="M0.97 11.06L0.97 15.24C0.97 16.22 1.9 16.94 2.91 16.94L11.73 16.94C12.74 16.94 13.45 16.22 13.45 15.24L13.45 15.19L16.7 16.75C16.76 16.78 16.8 16.8 16.86 16.8C17.49 16.8 17.96 16.29 17.96 15.66L17.96 10.25C17.96 9.61 17.52 9.11 16.89 9.11C16.82 9.11 16.79 9.12 16.73 9.15L13.51 10.73C13.35 9.93 12.66 9.33 11.8 9.29C12.7 8.65 13.29 7.62 13.29 6.45C13.29 4.51 11.67 2.94 9.67 2.94C8.04 2.94 6.66 3.99 6.2 5.43C5.71 4.95 5.02 4.64 4.26 4.64C2.75 4.64 1.52 5.84 1.52 7.31C1.52 8.12 1.85 8.84 2.43 9.33C1.62 9.51 0.96 10.22 0.96 11.06L0.97 11.06ZM16.91 9.95C17.04 9.99 17.1 10.12 17.1 10.24L17.1 15.65C17.1 15.78 17.04 15.91 16.91 15.95L13.44 14.25L13.44 11.64L16.91 9.95ZM6.72 8.41C6.95 8.71 7.22 9 7.53 9.21L6.1 9.21C6.35 9 6.56 8.71 6.72 8.41ZM6.91 6.46C6.91 4.98 8.15 3.78 9.67 3.78C11.19 3.78 12.43 4.98 12.43 6.46C12.43 7.93 11.19 9.14 9.67 9.14C8.38 9.14 7.29 8.27 6.99 7.1C6.98 6.95 6.96 6.81 6.92 6.67C6.91 6.6 6.91 6.53 6.91 6.45L6.91 6.46ZM4.26 5.49C5.12 5.49 5.84 6.04 6.07 6.8C6.08 6.95 6.11 7.09 6.14 7.23C6.14 7.26 6.14 7.29 6.14 7.32C6.14 8.32 5.29 9.14 4.26 9.14C3.22 9.14 2.38 8.32 2.38 7.32C2.38 6.31 3.22 5.49 4.26 5.49L4.26 5.49ZM12.58 15.16C12.58 15.68 12.15 16.1 11.61 16.1L2.79 16.1C2.26 16.1 1.83 15.68 1.83 15.16L1.83 10.98C1.83 10.46 2.26 10.04 2.79 10.04L11.61 10.04C12.15 10.04 12.58 10.46 12.58 10.98L12.58 15.16Z" fill="#FFFFFF" fill-opacity="1.000000" fill-rule="nonzero"/>
	</g>
</svg>
