<svg width="20.000000" height="20.000000" viewBox="0 0 20 20" fill="none" xmlns="http://www.w3.org/2000/svg" xmlns:xlink="http://www.w3.org/1999/xlink">
	<desc>
			Created with Pixso.
	</desc>
	<defs>
		<clipPath id="clip5_78">
			<rect id="Frame 88" width="20.000000" height="20.000000" transform="translate(-0.030029 -0.059998)" fill="white" fill-opacity="0"/>
		</clipPath>
	</defs>
	<g clip-path="url(#clip5_78)">
		<path id="Vector" d="M16.12 15.94L3.81 15.94C2.79 15.94 1.96 15.15 1.96 14.18L1.96 7.06C1.96 6.09 2.79 5.31 3.81 5.31L6.32 5.31L6.54 4.6C6.63 4.22 7 3.94 7.44 3.94L12.49 3.94C12.91 3.94 13.29 4.22 13.39 4.61L13.39 4.63L13.59 5.31L16.12 5.31C17.14 5.31 17.96 6.09 17.96 7.06L17.96 14.18C17.96 15.15 17.14 15.94 16.12 15.94ZM3.81 5.89C3.13 5.89 2.58 6.42 2.58 7.06L2.58 14.18C2.58 14.83 3.13 15.35 3.81 15.35L16.12 15.35C16.8 15.35 17.35 14.83 17.35 14.18L17.35 7.06C17.35 6.42 16.8 5.89 16.12 5.89L13.13 5.89L12.79 4.75C12.76 4.62 12.63 4.52 12.49 4.52L7.45 4.52C7.3 4.52 7.18 4.61 7.15 4.75L6.79 5.89L3.81 5.89ZM9.96 14.17C7.81 14.17 6.05 12.5 6.05 10.45C6.05 8.41 7.81 6.74 9.96 6.74C12.12 6.74 13.88 8.41 13.88 10.45C13.88 12.5 12.12 14.17 9.96 14.17ZM9.96 7.32C8.15 7.32 6.67 8.72 6.67 10.45C6.67 12.18 8.14 13.58 9.96 13.58C11.79 13.58 13.26 12.18 13.26 10.45C13.26 8.72 11.78 7.32 9.96 7.32ZM15.72 6.97C15.4 6.97 15.15 7.22 15.15 7.51C15.15 7.81 15.4 8.05 15.72 8.05C16.03 8.05 16.28 7.81 16.28 7.51C16.28 7.22 16.03 6.97 15.72 6.97Z" fill="#FFFFFF" fill-opacity="1.000000" fill-rule="nonzero"/>
	</g>
</svg>
