<svg width="24.000000" height="24.000000" viewBox="0 0 24 24" fill="none" xmlns="http://www.w3.org/2000/svg" xmlns:xlink="http://www.w3.org/1999/xlink">
	<desc>
			Created with Pixso.
	</desc>
	<defs>
		<clipPath id="clip5_140">
			<rect id="Frame 100" width="12.000000" height="12.000000" transform="translate(6.000000 6.000000)" fill="white" fill-opacity="0"/>
		</clipPath>
	</defs>
	<rect id="Icon" rx="12.000000" width="24.000000" height="24.000000" fill="#606060" fill-opacity="1.000000"/>
	<g clip-path="url(#clip5_140)">
		<path id="ï„" d="M18.02 8.28C18.02 8.09 17.94 7.9 17.81 7.74L16.87 6.81C16.72 6.67 16.53 6.6 16.34 6.6C16.13 6.6 15.95 6.67 15.82 6.81L15.13 7.49C15.09 7.53 15.07 7.59 15.07 7.63C15.07 7.69 15.09 7.72 15.13 7.76L16.85 9.49C16.89 9.52 16.93 9.54 16.99 9.54C17.02 9.54 17.08 9.52 17.12 9.49L17.81 8.8C17.94 8.66 18.02 8.49 18.02 8.28ZM14.42 13.06C14.36 13.1 14.35 13.16 14.35 13.22L14.35 15.17L8.22 15.17L8.22 9.05L12.62 9.05C12.68 9.05 12.74 9.03 12.78 8.99L13.54 8.2C13.62 8.15 13.64 8.07 13.6 7.97C13.56 7.88 13.48 7.82 13.39 7.82L7.91 7.82C7.65 7.82 7.44 7.92 7.26 8.09C7.07 8.28 7 8.49 7 8.74L7 15.48C7 15.74 7.07 15.95 7.26 16.13C7.44 16.32 7.65 16.4 7.91 16.4L14.65 16.4C14.9 16.4 15.11 16.32 15.3 16.13C15.47 15.95 15.57 15.74 15.57 15.48L15.57 12.45C15.57 12.36 15.51 12.28 15.42 12.24C15.32 12.2 15.24 12.22 15.19 12.3L14.42 13.06ZM14.57 8.13C14.61 8.13 14.67 8.15 14.71 8.18L16.43 9.91C16.47 9.94 16.49 10 16.49 10.04C16.49 10.1 16.47 10.14 16.43 10.17L12.24 14.37L10.48 14.56C10.34 14.58 10.23 14.54 10.15 14.46C10.08 14.39 10.04 14.27 10.06 14.14L10.25 12.38L14.44 8.18C14.48 8.15 14.52 8.13 14.57 8.13Z" fill="#FFFFFF" fill-opacity="1.000000" fill-rule="evenodd"/>
	</g>
</svg>
